<svg id="esper-overview_Image" data-name="esper-overview Image" xmlns="http://www.w3.org/2000/svg" viewBox="0 0 174.5 72.5">
<defs>
<style>
  .cls-1 { 
    fill:#fff;
  }
</style>
</defs>
<title>ESPER Logo</title>
<path d="M153.91,40.27c0,4-.16,7.78.06,11.5.14,2.53-.64,3.23-3.19,3.2q-16.11-.22-32.24,0c-5.51.07-10.79,0-13.5-5.22-2.64,1.72-4.84,3.79-7.44,4.65s-5.71.57-8.81.79V67.64H70.9c0-3.37-.14-6.69,0-10,.13-2.27-.7-2.79-2.84-2.78-16.83.07-33.66,0-50.49,0-7.56,0-11.52-4-11.53-11.59q0-13,0-26c0-6.93,4.12-11,11-11.09,3.83,0,7.66,0,11.5,0,4.5,0,5.38.47,10.5,5.53.47-.56.95-1.1,1.4-1.65a10,10,0,0,1,8-3.88q23.25,0,46.49,0c4.14,0,7,2.22,9.38,5.66.56-.62,1-1.06,1.39-1.55A10,10,0,0,1,114,6.23c4.5,0,9-.35,13.49.12,2.8.3,5.47,1.83,8.35,2.86l.35-2.8c.74-.06,1.46-.18,2.17-.18q10.5,0,21,0c6.93,0,11,4.13,11.08,11s0,13.5,0,20.24c0,.82-.07,1.64-.12,2.78ZM22.71,21.35h.8A11.49,11.49,0,0,1,24,23.69c.07,2.91,0,5.83,0,8.75,0,5.68,0,5.68,5.75,5.23,4.91-.39,8.19-3.71,8.3-8.61.1-4.25.11-8.5,0-12.75a8.29,8.29,0,0,0-8.43-8.42q-6.74-.16-13.49,0a8.25,8.25,0,0,0-8.42,8.42q-.18,14.25,0,28.49a8.28,8.28,0,0,0,8.68,8.43q22.74.06,45.49,0c4.9,0,8.46-3.26,8.69-8.16.21-4.57.21-9.16,0-13.74-.21-4.91-3.75-8.09-8.65-8.17-1.59,0-3.18.09-4.75-.06a5.89,5.89,0,0,1-1.91-1,5.3,5.3,0,0,1,1.83-.79c4.16-.08,8.34.11,12.49-.1,2.43-.12,2.89.79,2.87,3-.08,12.91,0,25.83,0,38.74,0,1,.13,2.07.2,3.06H87.13V62.88q0-19.38,0-38.74a18.1,18.1,0,0,1,.44-2.8l1.15.1V53.25H94.3c5.76,0,9.26-3.37,9.3-9.1q.12-13.62,0-27.24c0-5.62-3.51-9-9.11-9q-22.74,0-45.48,0c-5.5,0-8.93,3.39-9,8.84q-.12,6,0,12c.1,5.46,3.47,8.81,9,9,1.83.06,3.67,0,5.5,0a6.64,6.64,0,0,1,1.88.73c-.64.34-1.28,1-1.93,1-10,.06-20,0-30,.06-1.62,0-2.19-.63-2.16-2.23.07-4.67,0-9.33,0-14A8.66,8.66,0,0,1,22.71,21.35ZM154.35,38.69c4.21,0,8.2-.07,12.18,0,1.73,0,2.32-.51,2.3-2.27-.09-6.42,0-12.84-.05-19.25,0-5.92-3.43-9.32-9.32-9.35-6.33,0-12.66.11-19-.06-2.43-.07-2.88.82-2.85,3,.11,8.67,0,17.33.09,26,0,2.13-.72,2.76-2.74,2.71-4.25-.11-8.5-.08-12.75,0-1.69,0-2.39-.55-2.36-2.32.08-4.58,0-9.16,0-13.75a8.61,8.61,0,0,1,.56-2.1l.78,0a14.46,14.46,0,0,1,.48,2.39c0,2.92,0,5.84,0,8.75,0,5.55,0,5.55,5.55,5.2,5.16-.33,8.44-3.76,8.49-8.93q0-6,0-12c0-5.29-3.45-8.79-8.74-8.87-4.24-.08-8.5-.07-12.74,0-5.35.08-8.8,3.46-8.83,8.77q-.11,13.88,0,27.75c0,5.44,3.52,8.84,9,8.85,11.75,0,23.5,0,35.25.06,2.14,0,2.64-.71,2.62-2.72-.1-8.83-.06-17.67,0-26.5a18.86,18.86,0,0,1,.44-2.76l1.12.09C154.62,27,153.81,32.69,154.35,38.69Z"/>
<path class="cls-1" d="M22.71,21.35a8.66,8.66,0,0,0-.44,1.91c0,4.67,0,9.33,0,14,0,1.6.54,2.23,2.16,2.23,10,0,20,0,30-.06.65,0,1.29-.63,1.93-1a6.64,6.64,0,0,0-1.88-.73c-1.83-.1-3.67,0-5.5,0-5.49-.16-8.86-3.51-9-9q-.11-6,0-12c.1-5.45,3.53-8.83,9-8.84q22.74-.06,45.48,0c5.6,0,9.07,3.42,9.11,9q.12,13.62,0,27.24c0,5.73-3.54,9.07-9.3,9.1H88.74V21.44l-1.15-.1a18.1,18.1,0,0,0-.44,2.8q0,19.36,0,38.74V66H72.66c-.07-1-.2-2-.2-3.06,0-12.91,0-25.83,0-38.74,0-2.19-.44-3.1-2.87-3-4.15.21-8.33,0-12.49.1a5.3,5.3,0,0,0-1.83.79,5.89,5.89,0,0,0,1.91,1c1.57.15,3.16,0,4.75.06,4.9.08,8.44,3.26,8.65,8.17.21,4.58.21,9.17,0,13.74-.23,4.9-3.79,8.15-8.69,8.16q-22.74.06-45.49,0A8.28,8.28,0,0,1,7.75,44.8q-.17-14.23,0-28.49a8.25,8.25,0,0,1,8.42-8.42q6.75-.16,13.49,0a8.29,8.29,0,0,1,8.43,8.42c.11,4.25.1,8.5,0,12.75-.11,4.9-3.39,8.22-8.3,8.61-5.75.45-5.75.45-5.75-5.23,0-2.92,0-5.84,0-8.75a11.49,11.49,0,0,0-.51-2.35Z"/>
<path class="cls-1" d="M154.35,38.69c-.54-6,.27-11.69-.48-17.28l-1.12-.09a18.86,18.86,0,0,0-.44,2.76c0,8.83-.07,17.67,0,26.5,0,2-.48,2.73-2.62,2.72-11.75-.1-23.5,0-35.25-.06-5.48,0-9-3.41-9-8.85q-.07-13.87,0-27.75c0-5.31,3.48-8.69,8.83-8.77,4.24-.06,8.5-.07,12.74,0,5.29.08,8.69,3.58,8.74,8.87q0,6,0,12c0,5.17-3.33,8.6-8.49,8.93-5.55.35-5.55.35-5.55-5.2,0-2.91,0-5.83,0-8.75a14.46,14.46,0,0,0-.48-2.39l-.78,0a8.61,8.61,0,0,0-.56,2.1c0,4.59,0,9.17,0,13.75,0,1.77.67,2.35,2.36,2.32,4.25-.06,8.5-.09,12.75,0,2,.05,2.77-.58,2.74-2.71-.11-8.67,0-17.33-.09-26,0-2.18.42-3.07,2.85-3,6.33.17,12.66,0,19,.06,5.89,0,9.29,3.43,9.32,9.35,0,6.41,0,12.83.05,19.25,0,1.76-.57,2.31-2.3,2.27C162.55,38.62,158.56,38.69,154.35,38.69Z"/>
</svg>